<svg width="512" height="512" viewBox="0 0 512 512" fill="none" xmlns="http://www.w3.org/2000/svg">
<rect width="512" height="511.002" fill="#5046E5"/>
<path d="M348.873 216.308C350.04 226.342 349.69 235.442 347.823 243.608C346.19 251.542 344.44 258.192 342.573 263.558C338.606 273.825 333.24 283.275 326.473 291.908C319.706 300.308 312.24 307.658 304.073 313.958C296.14 320.258 287.856 325.508 279.223 329.708C270.59 333.908 262.54 336.825 255.073 338.458C253.206 338.925 251.223 339.392 249.123 339.858C247.256 340.092 246.44 339.975 246.673 339.508C246.206 339.042 246.906 338.342 248.773 337.408C250.64 336.475 252.39 335.658 254.023 334.958C267.09 328.658 279.34 321.192 290.773 312.558C302.206 303.925 312.006 293.542 320.173 281.408C324.14 275.575 327.64 269.158 330.673 262.158C333.706 254.925 335.806 247.458 336.973 239.758C338.14 232.058 338.14 224.242 336.973 216.308C335.806 208.142 333.123 200.208 328.923 192.508C323.556 182.708 316.673 174.775 308.273 168.708C299.873 162.408 290.656 157.742 280.623 154.708C270.59 151.442 260.206 149.575 249.473 149.108C238.973 148.408 228.823 148.875 219.023 150.508C217.623 150.742 216.806 150.858 216.573 150.858C216.34 150.858 215.99 150.742 215.523 150.508C215.523 150.042 215.873 149.692 216.573 149.458C217.506 149.225 218.323 148.875 219.023 148.408C223.223 146.542 228.706 145.025 235.473 143.858C242.473 142.458 250.173 141.992 258.573 142.458C266.973 142.925 275.84 144.558 285.173 147.358C294.74 149.925 304.306 154.358 313.873 160.658C323.44 166.958 331.256 175.242 337.323 185.508C343.623 195.542 347.473 205.808 348.873 216.308ZM326.823 201.608C328.923 207.208 330.09 212.808 330.323 218.408C330.79 224.008 330.556 229.492 329.623 234.858C328.923 239.992 327.64 245.008 325.773 249.908C324.14 254.575 322.156 258.775 319.823 262.508C319.356 262.975 318.773 263.792 318.073 264.958C317.373 265.892 316.673 266.942 315.973 268.108C315.273 269.042 314.573 269.858 313.873 270.558C313.173 271.025 312.706 271.142 312.473 270.908C312.24 270.908 312.24 270.442 312.473 269.508C312.94 268.575 313.29 267.525 313.523 266.358C313.99 265.192 314.456 264.142 314.923 263.208C315.39 262.275 315.74 261.575 315.973 261.108C318.073 257.142 319.473 252.358 320.173 246.758C320.873 240.925 320.99 234.975 320.523 228.908C320.29 222.842 319.356 217.008 317.723 211.408C316.323 205.575 314.223 200.792 311.423 197.058C310.49 195.658 308.623 193.558 305.823 190.758C303.023 187.725 299.29 184.575 294.623 181.308C289.956 178.042 284.473 175.008 278.173 172.208C271.873 169.408 264.756 167.658 256.823 166.958C249.123 166.258 241.306 166.142 233.373 166.608C225.673 166.842 218.323 167.542 211.323 168.708C204.556 169.875 198.49 171.275 193.123 172.908C187.99 174.542 184.14 176.058 181.573 177.458C180.406 178.158 179.24 178.625 178.073 178.858C177.14 179.092 176.673 179.092 176.673 178.858C176.44 178.392 176.673 177.808 177.373 177.108C178.073 176.408 178.656 175.825 179.123 175.358C182.856 171.625 188.456 168.125 195.923 164.858C203.623 161.592 212.023 159.025 221.123 157.158C230.456 155.058 239.906 154.008 249.473 154.008C259.273 153.775 268.023 154.942 275.723 157.508C280.623 159.142 285.64 161.358 290.773 164.158C296.14 166.725 301.04 169.875 305.473 173.608C310.14 177.342 314.34 181.542 318.073 186.208C321.806 190.875 324.723 196.008 326.823 201.608ZM207.123 329.708C208.99 319.208 211.44 308.592 214.473 297.858C217.74 286.892 221.006 275.808 224.273 264.608C227.54 254.108 230.573 243.375 233.373 232.408C236.173 221.442 237.806 209.658 238.273 197.058C238.273 195.892 238.273 195.308 238.273 195.308C238.506 195.308 238.74 195.308 238.973 195.308C239.206 195.308 239.556 196.008 240.023 197.408C242.59 203.242 243.523 211.058 242.823 220.858C242.356 230.425 241.073 240.458 238.973 250.958C236.873 261.225 234.423 271.258 231.623 281.058C229.056 290.625 227.073 298.208 225.673 303.808C224.506 308.008 223.456 311.975 222.523 315.708C221.59 319.208 220.54 322.942 219.373 326.908C227.773 321.308 235.94 315.708 243.873 310.108C252.04 304.275 259.623 298.208 266.623 291.908C273.623 285.375 279.806 278.492 285.173 271.258C290.773 264.025 295.206 256.208 298.473 247.808C303.84 233.808 303.606 221.208 297.773 210.008C292.173 198.575 281.44 190.408 265.573 185.508C253.673 182.008 241.656 180.258 229.523 180.258C231.623 188.192 232.556 196.825 232.323 206.158C232.323 215.492 231.39 223.308 229.523 229.608C226.256 241.975 222.29 254.692 217.623 267.758C212.956 280.592 208.29 292.608 203.623 303.808C203.39 304.275 202.806 305.442 201.873 307.308C200.94 309.175 200.123 309.992 199.423 309.758C198.956 309.758 198.84 308.825 199.073 306.958C199.306 304.858 199.423 303.575 199.423 303.108C199.656 300.308 200.123 296.925 200.823 292.958C201.523 288.992 202.223 284.908 202.923 280.708C203.623 276.508 204.44 272.425 205.373 268.458C206.306 264.258 207.356 260.758 208.523 257.958C208.99 256.325 209.923 252.592 211.323 246.758C212.723 240.925 214.123 234.158 215.523 226.458C216.923 218.758 218.206 210.825 219.373 202.658C220.54 194.258 221.356 186.792 221.823 180.258C219.956 180.258 218.556 180.375 217.623 180.608C217.856 190.175 216.923 199.975 214.823 210.008C212.956 219.808 210.506 229.842 207.473 240.108C204.44 250.142 201.173 260.292 197.673 270.558C194.173 280.825 191.256 290.975 188.923 301.008C187.056 308.708 185.656 316.875 184.723 325.508C183.79 334.142 183.44 342.775 183.673 351.408C183.906 360.042 184.956 368.558 186.823 376.958C188.69 385.125 191.49 392.708 195.223 399.708C195.923 400.875 195.923 401.342 195.223 401.108C194.756 401.108 194.173 400.875 193.473 400.408C187.173 393.175 182.506 385.242 179.473 376.608C176.44 367.975 174.573 359.108 173.873 350.008C173.173 340.675 173.406 331.225 174.573 321.658C175.973 312.092 177.723 302.758 179.823 293.658C182.156 283.858 184.84 274.058 187.873 264.258C190.906 254.458 193.823 244.892 196.623 235.558C199.423 225.992 201.99 216.775 204.323 207.908C206.89 198.808 208.756 189.942 209.923 181.308C203.156 182.242 196.623 183.642 190.323 185.508C184.023 187.142 177.956 188.892 172.123 190.758C170.256 191.225 169.206 191.225 168.973 190.758C168.74 190.292 168.973 189.825 169.673 189.358C170.606 188.892 171.19 188.542 171.423 188.308C177.956 184.342 185.19 181.075 193.123 178.508C201.29 175.708 209.69 173.842 218.323 172.908C226.956 171.742 235.823 171.508 244.923 172.208C254.023 172.675 263.006 174.192 271.873 176.758C281.206 179.558 288.906 183.875 294.973 189.708C301.04 195.542 305.473 202.192 308.273 209.658C311.306 216.892 312.59 224.708 312.123 233.108C311.656 241.275 309.556 249.208 305.823 256.908C300.923 266.708 294.74 275.692 287.273 283.858C279.806 291.792 271.406 299.142 262.073 305.908C252.973 312.675 243.173 318.975 232.673 324.808C222.406 330.408 212.14 335.775 201.873 340.908C201.406 341.142 200.123 341.725 198.023 342.658C195.923 343.358 194.756 343.475 194.523 343.008C194.523 342.775 195.106 342.192 196.273 341.258C197.673 340.092 199.073 339.042 200.473 338.108C203.973 336.242 206.19 333.442 207.123 329.708ZM230.573 333.908C234.073 332.042 238.39 329.592 243.523 326.558C248.89 323.525 254.023 320.608 258.923 317.808C263.823 315.008 268.023 312.675 271.523 310.808C275.256 308.942 277.24 308.242 277.473 308.708C277.706 308.942 277.24 309.758 276.073 311.158C275.14 312.325 273.856 313.725 272.223 315.358C270.59 316.758 268.956 318.158 267.323 319.558C265.69 320.958 264.406 322.008 263.473 322.708C258.806 325.975 254.14 328.892 249.473 331.458C245.04 334.025 240.49 336.358 235.823 338.458C231.856 340.325 227.773 341.958 223.573 343.358C219.606 344.758 215.523 346.275 211.323 347.908C210.156 351.175 209.106 354.442 208.173 357.708C207.473 360.975 206.773 364.008 206.073 366.808C205.84 367.975 205.49 369.142 205.023 370.308C204.79 371.475 204.556 372.058 204.323 372.058C203.856 371.825 203.506 371.008 203.273 369.608C203.273 367.975 203.273 366.692 203.273 365.758C203.273 363.658 203.273 361.208 203.273 358.408C203.273 355.375 203.39 352.808 203.623 350.708C201.99 351.175 200.356 351.875 198.723 352.808C197.323 353.742 196.74 355.142 196.973 357.008C196.973 364.008 197.323 370.308 198.023 375.908C199.19 383.842 201.29 391.425 204.323 398.658C204.556 399.125 204.79 399.708 205.023 400.408C205.49 401.108 205.606 401.575 205.373 401.808C204.906 402.042 203.856 401.575 202.223 400.408C199.656 397.142 197.44 393.992 195.573 390.958C193.706 387.692 192.19 382.792 191.023 376.258C190.556 374.158 190.206 371.358 189.973 367.858C189.973 364.358 190.09 361.092 190.323 358.058C190.323 356.192 190.673 354.558 191.373 353.158C192.073 351.758 193.59 350.475 195.923 349.308C197.323 348.608 199.656 347.558 202.923 346.158C206.423 344.525 210.04 342.892 213.773 341.258C217.506 339.625 220.89 338.108 223.923 336.708C227.19 335.308 229.406 334.375 230.573 333.908Z" fill="white"/>
</svg>
